<svg width="20.000000" height="19.000000" viewBox="0 0 20 19" fill="none" xmlns="http://www.w3.org/2000/svg" xmlns:xlink="http://www.w3.org/1999/xlink">
	<desc>
			Created with Pixso.
	</desc>
	<defs/>
	<g opacity="0.240000">
		<path id="Combined-Shape" d="M1.55188 10.5922C1.1969 10.9455 0.621338 10.9455 0.266235 10.5922C-0.0887451 10.2388 -0.0887451 9.66595 0.266235 9.31262L9.35718 0.265015C9.71216 -0.0883179 10.2878 -0.0883179 10.6428 0.265015L19.7338 9.31262C20.0887 9.66595 20.0887 10.2388 19.7338 10.5922C19.3787 10.9455 18.8031 10.9455 18.4481 10.5922L18.1818 10.3274L18.1818 17.1945C18.1818 18.1933 17.3689 19 16.3628 19L3.63721 19C2.63342 19 1.81824 18.1934 1.81824 17.1945L1.81824 10.3274L1.55188 10.5922ZM6.36365 17.191L3.63721 17.1905C3.63721 17.1905 3.63611 10.2308 3.63635 8.51947L10 2.19165L16.3636 8.51947L16.3636 17.1945L13.6364 17.1929L13.6364 11.7597C13.6364 11.2609 13.2306 10.8571 12.73 10.8571L7.27002 10.8571C6.77026 10.8571 6.36365 11.2612 6.36365 11.7597L6.36365 17.191ZM11.8182 12.6653L11.8182 17.1923L8.18176 17.1914L8.18176 12.6667L11.8182 12.6653Z" clip-rule="evenodd" fill="#000000" fill-opacity="1.000000" fill-rule="evenodd"/>
	</g>
</svg>
